<?xml version="1.0" standalone="no"?><!DOCTYPE svg PUBLIC "-//W3C//DTD SVG 1.1//EN" "http://www.w3.org/Graphics/SVG/1.1/DTD/svg11.dtd"><svg t="1545752399086" class="icon" style="" viewBox="0 0 1024 1024" version="1.1" xmlns="http://www.w3.org/2000/svg" p-id="1992" xmlns:xlink="http://www.w3.org/1999/xlink" width="200" height="200"><defs><style type="text/css"></style></defs><path d="M512 1024c-281.6 0-512-230.4-512-512s230.4-512 512-512 512 230.4 512 512S793.6 1024 512 1024L512 1024zM512 51.2C256 51.2 51.2 256 51.2 512S256 972.8 512 972.8 972.8 768 972.8 512 768 51.2 512 51.2L512 51.2z" p-id="1993" fill="#00A9E0"></path><path d="M806.4 480c0 0-422.4-236.8-428.8-236.8C339.2 230.4 326.4 262.4 326.4 288l0 0c0 0 0 467.2 6.4 467.2 12.8 32 44.8 32 70.4 19.2l0 0c0 0 390.4-224 396.8-230.4C819.2 531.2 838.4 505.6 806.4 480L806.4 480z" p-id="1994" fill="#00A9E0"></path></svg>